<?xml version="1.0" standalone="no"?>
<!DOCTYPE svg PUBLIC "-//W3C//DTD SVG 20010904//EN"
 "http://www.w3.org/TR/2001/REC-SVG-20010904/DTD/svg10.dtd">
<svg version="1.0" xmlns="http://www.w3.org/2000/svg"
 width="350.000000pt" height="350.000000pt" viewBox="0 0 350.000000 350.000000"
 preserveAspectRatio="xMidYMid meet">

<g transform="translate(0.000000,350.000000) scale(0.100000,-0.100000)"
fill="#000000" stroke="none">
<path d="M1590 3400 c-282 -30 -577 -142 -810 -308 -121 -86 -287 -252 -372
-372 -423 -596 -418 -1378 14 -1962 34 -46 109 -130 167 -188 538 -533 1362
-632 2016 -242 264 157 490 402 628 680 235 470 235 1003 1 1477 -236 480
-687 813 -1218 900 -115 19 -319 26 -426 15z m548 -580 c5 -60 51 -186 91
-247 21 -32 64 -82 97 -112 79 -72 150 -104 244 -111 l75 -5 3 -184 2 -184
-84 6 c-147 10 -266 52 -378 132 l-48 35 0 -413 c0 -458 -4 -498 -64 -622 -88
-186 -248 -318 -446 -371 -86 -23 -244 -23 -330 0 -202 53 -368 191 -455 381
-46 99 -60 165 -59 280 1 177 65 334 188 460 83 84 161 133 271 171 67 23 98
27 190 28 l110 1 7 -50 c8 -61 10 -310 3 -317 -3 -3 -26 -2 -50 3 -93 17 -210
-25 -276 -99 -109 -125 -103 -300 16 -418 71 -71 105 -87 201 -92 72 -4 89 -1
136 20 75 35 122 79 158 150 l30 61 0 762 c0 419 3 765 7 769 4 3 86 5 182 4
l176 -3 3 -35z"/>
</g>
</svg>
